Coordinates
version=1
nRows=6
nColumns=63
inDegrees=yes

Units are S.I. units (second, meters, Newtons, ...)
If the header above contains a line with 'inDegrees', this indicates whether rotational values are in degrees (yes) or radians (no).

endheader
time	pelvis_tilt	pelvis_list	pelvis_rotation	pelvis_tx	pelvis_ty	pelvis_tz	hip_flexion_r	hip_adduction_r	hip_rotation_r	knee_angle_r	knee_angle_r_beta	ankle_angle_r	subtalar_angle_r	mtp_angle_r	hip_flexion_l	hip_adduction_l	hip_rotation_l	knee_angle_l	knee_angle_l_beta	ankle_angle_l	subtalar_angle_l	mtp_angle_l	L5_S1_Flex_Ext	L5_S1_Lat_Bending	L5_S1_axial_rotation	L4_L5_Flex_Ext	L4_L5_Lat_Bending	L4_L5_axial_rotation	L3_L4_Flex_Ext	L3_L4_Lat_Bending	L3_L4_axial_rotation	L2_L3_Flex_Ext	L2_L3_Lat_Bending	L2_L3_axial_rotation	L1_L2_Flex_Ext	L1_L2_Lat_Bending	L1_L2_axial_rotation	L1_T12_Flex_Ext	L1_T12_Lat_Bending	L1_T12_axial_rotation	Abs_r3	Abs_r2	Abs_r1	Abs_t1	Abs_t2	neck_flexion	neck_bending	neck_rotation	arm_flex_r	arm_add_r	arm_rot_r	elbow_flex_r	pro_sup_r	wrist_flex_r	wrist_dev_r	arm_flex_l	arm_add_l	arm_rot_l	elbow_flex_l	pro_sup_l	wrist_flex_l	wrist_dev_l
      0.00000000	     -0.54839543	     -4.00337018	     88.46364632	      0.21057286	      0.71070893	      0.80657958	      6.19236070	     -0.73128102	      1.57952569	      5.64400289	      0.09850643	     22.82086695	     10.95788959	      0.00000000	      4.25986732	      0.18353660	    -10.68048143	      4.12661426	      0.07202301	     19.92608924	      3.37939306	      0.00000000	      0.22976380	     -0.11132055	      0.62296172	      0.42669436	     -0.14805633	      0.66189682	      0.37747895	     -0.27066477	      0.66189682	      0.26259705	     -0.27066477	      0.54509150	      0.21335867	     -0.22700486	      0.50615640	      0.13128704	     -0.17243553	      0.46722129	      1.64117988	     -1.25928028	      3.46472618	      0.00000000	      0.00000000	     27.71967668	      2.57294264	     -9.15717124	     13.72855246	     -7.34246317	     56.34508008	     43.16368017	     80.33163689	      8.74999208	      1.96726630	     14.16393420	    -11.17234007	     64.64093052	     47.98861423	     57.23382113	     -2.35872033	     -8.11394562
      0.01694915	     -0.88441574	     -3.80165265	     88.25063498	      0.21100164	      0.71194495	      0.80675643	      6.07750583	     -1.09357209	      1.41477772	      5.81119928	      0.10142456	     22.87520037	     11.42759182	      0.00000000	      4.07034718	      0.49380204	    -12.54834249	      4.07841716	      0.07118181	     21.03805783	      5.71511755	      0.00000000	      0.22583316	     -0.15205927	      0.67754145	      0.41939476	     -0.20223883	      0.71988779	      0.37102130	     -0.36971691	      0.71988779	      0.25810472	     -0.36971691	      0.59284877	      0.20970867	     -0.31007926	      0.55050243	      0.12904107	     -0.23553981	      0.50815609	      1.61310366	     -1.72012488	      3.76828228	      0.00000000	      0.00000000	     27.56556729	      3.95210836	     -7.26320557	     12.79390981	     -6.99855404	     53.74168823	     43.81824909	     69.90474289	      9.19606836	      8.34405435	     15.23349848	    -11.15297228	     66.42125851	     47.05097556	     56.58235584	     -1.71552480	     -8.49800954
      0.03389831	     -1.12764757	     -3.55817355	     88.00922751	      0.21152198	      0.71309926	      0.80692861	      5.87821927	     -1.32595339	      1.64766148	      5.85605159	      0.10220738	     22.74753249	     11.42200945	      0.00000000	      3.83618084	      0.69847118	    -14.29398537	      4.07386671	      0.07110239	     21.76646323	      7.82743614	      0.00000000	      0.20270003	     -0.18623112	      0.67071007	      0.37643422	     -0.24768738	      0.71262944	      0.33301587	     -0.45280234	      0.71262944	      0.23166586	     -0.45280234	      0.58687131	      0.18822724	     -0.37976249	      0.54495193	      0.11582279	     -0.28847200	      0.50303255	      1.44786601	     -2.10668363	      3.73028817	      0.00000000	      0.00000000	     27.29212260	      5.15487278	     -5.71035653	     13.25804380	     -7.27257724	     58.66650554	     45.22149776	     33.55938941	      1.07549254	     13.04621427	     15.75856764	    -11.19436498	     66.82977450	     46.44452554	     56.58930382	     -1.31329354	     -8.29828151
      0.05084746	     -1.31190386	     -3.42958312	     87.82527626	      0.21181175	      0.71384493	      0.80686204	      5.76831507	     -1.51076395	      1.71643065	      5.86137651	      0.10230032	     22.66685035	     11.57595842	      0.00000000	      3.67718905	      0.89382052	    -15.06602988	      3.99957780	      0.06980580	     22.04288012	      8.63578189	      0.00000000	      0.18897434	     -0.21432563	      0.71513260	      0.35094425	     -0.28505309	      0.75982838	      0.31046595	     -0.52111134	      0.75982838	      0.21597878	     -0.52111134	      0.62574102	      0.17548158	     -0.43705283	      0.58104523	      0.10797994	     -0.33199041	      0.53634945	      1.34982484	     -2.42449443	      3.97735296	      0.00000000	      0.00000000	     26.95269415	      5.44963045	     -5.37431599	     13.18166085	     -7.12904907	     58.95358199	     45.67079602	     23.92898005	     -1.88349816	     13.81734743	     16.15314497	    -11.00974613	     66.75561480	     45.78660595	     58.24200329	     -0.70170524	     -7.65792197
      0.06779661	     -1.42777643	     -3.35622361	     87.89349264	      0.21168868	      0.71432656	      0.80662908	      5.60916019	     -1.64502217	      1.68879632	      5.70592743	      0.09958722	     22.53271621	     11.59761914	      0.00000000	      3.58459637	      1.06383848	    -14.74137459	      3.93060802	      0.06860205	     22.00877588	      8.30041610	      0.00000000	      0.17803545	     -0.23490214	      0.72419375	      0.33062963	     -0.31241985	      0.76945586	      0.29249444	     -0.57114107	      0.76945586	      0.20347672	     -0.57114107	      0.63366953	      0.16532372	     -0.47901245	      0.58840742	      0.10172946	     -0.36386342	      0.54314531	      1.27168942	     -2.65726003	      4.02774838	      0.00000000	      0.00000000	     26.56346332	      5.46980100	     -5.46193749	     13.19375623	     -6.87994398	     58.81113957	     45.12372948	     24.94873144	     -1.88201759	     13.46283118	     16.50770497	    -10.85646040	     67.03218667	     45.42902670	     58.23968264	     -0.69487437	     -7.02094910
      0.08474576	     -1.52838830	     -3.34475328	     87.37919671	      0.21235288	      0.71459293	      0.80632113	      5.69586406	     -1.69388482	      2.22489839	      5.77931288	      0.10086804	     22.50291065	     11.57084914	      0.00000000	      3.46955569	      1.18728366	    -14.92379821	      3.79526496	      0.06623987	     21.78060757	      7.75586279	      0.00000000	      0.17523226	     -0.25629723	      0.90009468	      0.32542384	     -0.34087532	      0.95635060	      0.28788909	     -0.62316109	      0.95635060	      0.20027295	     -0.62316109	      0.78758284	      0.16272068	     -0.52264131	      0.73132693	      0.10012772	     -0.39700441	      0.67507101	      1.25166654	     -2.89928554	      5.00605658	      0.00000000	      0.00000000	     26.15191544	      4.85160002	     -6.60353615	     13.06113101	     -6.75156280	     58.62216629	     44.56609344	     25.80666327	     -1.47217494	     12.40328691	     16.94229532	    -10.44790683	     66.99062149	     44.56485582	     61.69870837	      0.25377678	     -6.73641709
